{
  "asset": {
    "version": "2.0",
    "generator": "Knowgrph original XR physics playground validation generator",
    "copyright": "Original geometry, animation timing, and material palette; no external assets copied.",
    "extras": {
      "coordinateSystem": "right-handed-y-up",
      "axes": {
        "x": "lateral-left-right",
        "y": "vertical-gravity-up",
        "z": "forward-depth"
      },
      "unit": "meter"
    }
  },
  "scene": 0,
  "scenes": [
    {
      "name": "kg_xr_physics_playground_scene",
      "nodes": [
        0
      ]
    }
  ],
  "nodes": [
    {
      "name": "kg_xr_physics_playground_root",
      "children": [
        1,
        2,
        3,
        4,
        5,
        6,
        7,
        8,
        9,
        10,
        11,
        12,
        13,
        14,
        15,
        16,
        17,
        18,
        19,
        20,
        21,
        22,
        23,
        24
      ],
      "extras": {
        "coordinateSystem": "right-handed-y-up",
        "axes": {
          "x": "lateral-left-right",
          "y": "vertical-gravity-up",
          "z": "forward-depth"
        },
        "validationRole": "runtime-ready XR physics playground",
        "controllerSwap": [
          "kg_ui_swap_beach_ball_button",
          "kg_ui_swap_rocket_button"
        ],
        "controls": [
          "WASD/Arrow Keys movement",
          "Space jump/thrust",
          "Shift rocket stabilization"
        ],
        "paritySignals": [
          "rolling ball",
          "jump impulse",
          "rocket thrust",
          "stabilization",
          "collision obstacles",
          "velocity tracking",
          "smooth camera follow"
        ]
      }
    },
    {
      "name": "kg_physics_floor_collision_bounds",
      "mesh": 0,
      "translation": [
        0,
        -0.09,
        0
      ],
      "extras": {
        "collider": "ground",
        "sizeXYZ": [
          20,
          0.18,
          20
        ]
      }
    },
    {
      "name": "kg_collision_boundary_ring",
      "mesh": 10,
      "translation": [
        0,
        0.03,
        0
      ],
      "extras": {
        "collider": "boundary",
        "radiusXZ": 6
      }
    },
    {
      "name": "kg_ball_spawn_platform",
      "mesh": 1,
      "translation": [
        -3.2,
        0.22,
        -2.7
      ],
      "extras": {
        "coordinateXYZ": [
          -3.2,
          0.22,
          -2.7
        ]
      }
    },
    {
      "name": "kg_rocket_spawn_platform",
      "mesh": 1,
      "translation": [
        3.2,
        0.22,
        2.7
      ],
      "extras": {
        "coordinateXYZ": [
          3.2,
          0.22,
          2.7
        ]
      }
    },
    {
      "name": "kg_jump_ramp_left",
      "mesh": 2,
      "translation": [
        -1.8,
        0.22,
        0.9
      ],
      "rotation": [
        0,
        0,
        -0.18,
        0.984
      ],
      "extras": {
        "rampAxis": "x",
        "coordinateXYZ": [
          -1.8,
          0.22,
          0.9
        ]
      }
    },
    {
      "name": "kg_thrust_ramp_right",
      "mesh": 2,
      "translation": [
        1.8,
        0.22,
        -0.9
      ],
      "rotation": [
        0,
        0,
        0.18,
        0.984
      ],
      "extras": {
        "rampAxis": "x",
        "coordinateXYZ": [
          1.8,
          0.22,
          -0.9
        ]
      }
    },
    {
      "name": "kg_collision_obstacle_0",
      "mesh": 3,
      "translation": [
        -4,
        0.6,
        1.7
      ],
      "scale": [
        1,
        0.55,
        1
      ],
      "extras": {
        "collider": "box",
        "coordinateXYZ": [
          -4,
          0.6,
          1.7
        ]
      }
    },
    {
      "name": "kg_collision_obstacle_1",
      "mesh": 3,
      "translation": [
        -0.8,
        0.6,
        -3.8
      ],
      "scale": [
        1,
        0.67,
        1
      ],
      "extras": {
        "collider": "box",
        "coordinateXYZ": [
          -0.8,
          0.6,
          -3.8
        ]
      }
    },
    {
      "name": "kg_collision_obstacle_2",
      "mesh": 3,
      "translation": [
        3.9,
        0.6,
        -0.8
      ],
      "scale": [
        1,
        0.79,
        1
      ],
      "extras": {
        "collider": "box",
        "coordinateXYZ": [
          3.9,
          0.6,
          -0.8
        ]
      }
    },
    {
      "name": "kg_collision_obstacle_3",
      "mesh": 3,
      "translation": [
        0.9,
        0.6,
        3.7
      ],
      "scale": [
        1,
        0.91,
        1
      ],
      "extras": {
        "collider": "box",
        "coordinateXYZ": [
          0.9,
          0.6,
          3.7
        ]
      }
    },
    {
      "name": "kg_vehicle_ball_controller_active",
      "mesh": 4,
      "translation": [
        -3.2,
        0.92,
        -2.7
      ],
      "extras": {
        "controller": "ball",
        "coordinateXYZ": [
          -3.2,
          0.92,
          -2.7
        ],
        "input": [
          "move-xz",
          "jump-y",
          "torque"
        ],
        "tracks": [
          "isGrounded",
          "collisionCount",
          "velocityX",
          "velocityY",
          "velocityZ"
        ]
      }
    },
    {
      "name": "kg_vehicle_ball_jump_state_overlay",
      "mesh": 5,
      "translation": [
        -3.2,
        0.92,
        -2.7
      ],
      "scale": [
        1.02,
        1.02,
        1.02
      ],
      "extras": {
        "state": "jump-height-preview",
        "coordinateXYZ": [
          -3.2,
          0.92,
          -2.7
        ]
      }
    },
    {
      "name": "kg_vehicle_rocket_controller_active",
      "mesh": 6,
      "translation": [
        3.2,
        1.25,
        2.7
      ],
      "rotation": [
        0,
        0,
        -0.18,
        0.984
      ],
      "extras": {
        "controller": "rocket",
        "coordinateXYZ": [
          3.2,
          1.25,
          2.7
        ],
        "input": [
          "move-xz",
          "thrust-y",
          "stabilize"
        ],
        "tracks": [
          "isGrounded",
          "collisionCount",
          "velocityX",
          "velocityY",
          "velocityZ",
          "isThrusting",
          "quaternion"
        ]
      }
    },
    {
      "name": "kg_rocket_left_stabilizer_fin",
      "mesh": 7,
      "translation": [
        2.82,
        0.74,
        2.7
      ],
      "rotation": [
        0,
        0,
        -0.18,
        0.984
      ]
    },
    {
      "name": "kg_rocket_right_stabilizer_fin",
      "mesh": 7,
      "translation": [
        3.58,
        0.74,
        2.7
      ],
      "rotation": [
        0,
        0,
        -0.18,
        0.984
      ]
    },
    {
      "name": "kg_rocket_thrust_particle_plume",
      "mesh": 8,
      "translation": [
        3.2,
        0.46,
        2.7
      ],
      "rotation": [
        0,
        0,
        -0.18,
        0.984
      ],
      "scale": [
        0.3,
        0.3,
        0.3
      ],
      "extras": {
        "thrustAxis": "+Y",
        "coordinateXYZ": [
          3.2,
          0.46,
          2.7
        ]
      }
    },
    {
      "name": "kg_shared_velocity_vector_indicator",
      "mesh": 9,
      "translation": [
        -2.55,
        0.28,
        -2.1
      ],
      "rotation": [
        0,
        0.56,
        0,
        0.83
      ],
      "extras": {
        "vectorBasis": "XZ heading with Y lift"
      }
    },
    {
      "name": "kg_ui_swap_beach_ball_button",
      "mesh": 11,
      "translation": [
        -1.05,
        0.12,
        -6.4
      ],
      "extras": {
        "action": "set-controller",
        "target": "ball",
        "coordinateXYZ": [
          -1.05,
          0.12,
          -6.4
        ]
      }
    },
    {
      "name": "kg_ui_swap_rocket_button",
      "mesh": 11,
      "translation": [
        1.05,
        0.12,
        -6.4
      ],
      "extras": {
        "action": "set-controller",
        "target": "rocket",
        "coordinateXYZ": [
          1.05,
          0.12,
          -6.4
        ]
      }
    },
    {
      "name": "kg_input_map_wasd_arrows_space_shift_panel",
      "mesh": 1,
      "translation": [
        0,
        0.08,
        -7.25
      ],
      "scale": [
        1.28,
        0.18,
        0.28
      ],
      "extras": {
        "coordinateXYZ": [
          0,
          0.08,
          -7.25
        ],
        "actions": {
          "move": "WASD/Arrow Keys on X/Z plane",
          "jumpOrThrust": "Space on +Y",
          "stabilize": "Shift attitude damping"
        }
      }
    },
    {
      "name": "kg_smooth_camera_follow_target",
      "mesh": 12,
      "translation": [
        0,
        2.65,
        4.6
      ],
      "rotation": [
        0.68,
        0,
        0,
        0.73
      ],
      "extras": {
        "follows": "active-controller",
        "coordinateXYZ": [
          0,
          2.65,
          4.6
        ]
      }
    },
    {
      "name": "kg_xr_playground_inspection_camera",
      "camera": 0,
      "translation": [
        0,
        6.6,
        10.5
      ],
      "rotation": [
        -0.44,
        0,
        0,
        0.9
      ],
      "extras": {
        "coordinateXYZ": [
          0,
          6.6,
          10.5
        ]
      }
    },
    {
      "name": "kg_playground_sun_key_light",
      "extensions": {
        "KHR_lights_punctual": {
          "light": 0
        }
      },
      "rotation": [
        -0.58,
        0.35,
        0.18,
        0.71
      ]
    },
    {
      "name": "kg_playground_fill_light",
      "extensions": {
        "KHR_lights_punctual": {
          "light": 1
        }
      },
      "translation": [
        -4,
        5,
        3
      ]
    }
  ],
  "meshes": [
    {
      "name": "kg_physics_floor_collision_mesh",
      "primitives": [
        {
          "attributes": {
            "POSITION": 0
          },
          "indices": 1,
          "material": 0
        }
      ]
    },
    {
      "name": "kg_physics_elevated_platform_mesh",
      "primitives": [
        {
          "attributes": {
            "POSITION": 2
          },
          "indices": 3,
          "material": 1
        }
      ]
    },
    {
      "name": "kg_physics_ramp_mesh",
      "primitives": [
        {
          "attributes": {
            "POSITION": 4
          },
          "indices": 5,
          "material": 2
        }
      ]
    },
    {
      "name": "kg_collision_obstacle_mesh",
      "primitives": [
        {
          "attributes": {
            "POSITION": 6
          },
          "indices": 7,
          "material": 3
        }
      ]
    },
    {
      "name": "kg_beach_ball_rolling_mesh",
      "primitives": [
        {
          "attributes": {
            "POSITION": 8
          },
          "indices": 9,
          "material": 4
        }
      ]
    },
    {
      "name": "kg_beach_ball_jump_highlight_mesh",
      "primitives": [
        {
          "attributes": {
            "POSITION": 10
          },
          "indices": 11,
          "material": 5
        }
      ]
    },
    {
      "name": "kg_rocket_thrust_body_mesh",
      "primitives": [
        {
          "attributes": {
            "POSITION": 12
          },
          "indices": 13,
          "material": 6
        }
      ]
    },
    {
      "name": "kg_rocket_stabilizer_fin_mesh",
      "primitives": [
        {
          "attributes": {
            "POSITION": 14
          },
          "indices": 15,
          "material": 7
        }
      ]
    },
    {
      "name": "kg_rocket_booster_plume_mesh",
      "primitives": [
        {
          "attributes": {
            "POSITION": 16
          },
          "indices": 17,
          "material": 8
        }
      ]
    },
    {
      "name": "kg_velocity_vector_mesh",
      "primitives": [
        {
          "attributes": {
            "POSITION": 18
          },
          "indices": 19,
          "material": 9
        }
      ]
    },
    {
      "name": "kg_collision_boundary_ring_mesh",
      "primitives": [
        {
          "attributes": {
            "POSITION": 20
          },
          "indices": 21,
          "material": 9
        }
      ]
    },
    {
      "name": "kg_vehicle_swap_button_mesh",
      "primitives": [
        {
          "attributes": {
            "POSITION": 22
          },
          "indices": 23,
          "material": 11
        }
      ]
    },
    {
      "name": "kg_camera_follow_ring_mesh",
      "primitives": [
        {
          "attributes": {
            "POSITION": 24
          },
          "indices": 25,
          "material": 12
        }
      ]
    }
  ],
  "materials": [
    {
      "name": "kg_playground_sand_floor",
      "pbrMetallicRoughness": {
        "baseColorFactor": [
          0.74,
          0.67,
          0.45,
          1
        ],
        "metallicFactor": 0,
        "roughnessFactor": 0.72
      },
      "emissiveFactor": [
        0,
        0,
        0
      ],
      "alphaMode": "OPAQUE",
      "doubleSided": false
    },
    {
      "name": "kg_playground_physics_platforms",
      "pbrMetallicRoughness": {
        "baseColorFactor": [
          0.18,
          0.28,
          0.38,
          1
        ],
        "metallicFactor": 0,
        "roughnessFactor": 0.72
      },
      "emissiveFactor": [
        0,
        0,
        0
      ],
      "alphaMode": "OPAQUE",
      "doubleSided": false
    },
    {
      "name": "kg_playground_ramp_collision_surface",
      "pbrMetallicRoughness": {
        "baseColorFactor": [
          0.27,
          0.42,
          0.52,
          1
        ],
        "metallicFactor": 0,
        "roughnessFactor": 0.72
      },
      "emissiveFactor": [
        0,
        0,
        0
      ],
      "alphaMode": "OPAQUE",
      "doubleSided": false
    },
    {
      "name": "kg_playground_collision_hazard",
      "pbrMetallicRoughness": {
        "baseColorFactor": [
          0.92,
          0.28,
          0.18,
          1
        ],
        "metallicFactor": 0,
        "roughnessFactor": 0.72
      },
      "emissiveFactor": [
        0.45,
        0.06,
        0.02
      ],
      "alphaMode": "OPAQUE",
      "doubleSided": false
    },
    {
      "name": "kg_beach_ball_blue_panel",
      "pbrMetallicRoughness": {
        "baseColorFactor": [
          0.05,
          0.48,
          0.9,
          1
        ],
        "metallicFactor": 0,
        "roughnessFactor": 0.72
      },
      "emissiveFactor": [
        0,
        0,
        0
      ],
      "alphaMode": "OPAQUE",
      "doubleSided": false
    },
    {
      "name": "kg_beach_ball_white_panel",
      "pbrMetallicRoughness": {
        "baseColorFactor": [
          0.96,
          0.97,
          0.9,
          1
        ],
        "metallicFactor": 0,
        "roughnessFactor": 0.72
      },
      "emissiveFactor": [
        0,
        0,
        0
      ],
      "alphaMode": "OPAQUE",
      "doubleSided": false
    },
    {
      "name": "kg_rocket_body",
      "pbrMetallicRoughness": {
        "baseColorFactor": [
          0.88,
          0.91,
          0.95,
          1
        ],
        "metallicFactor": 0.08,
        "roughnessFactor": 0.42
      },
      "emissiveFactor": [
        0,
        0,
        0
      ],
      "alphaMode": "OPAQUE",
      "doubleSided": false
    },
    {
      "name": "kg_rocket_fins",
      "pbrMetallicRoughness": {
        "baseColorFactor": [
          0.92,
          0.22,
          0.18,
          1
        ],
        "metallicFactor": 0,
        "roughnessFactor": 0.72
      },
      "emissiveFactor": [
        0,
        0,
        0
      ],
      "alphaMode": "OPAQUE",
      "doubleSided": false
    },
    {
      "name": "kg_rocket_thrust_plume_active",
      "pbrMetallicRoughness": {
        "baseColorFactor": [
          1,
          0.42,
          0.08,
          0.62
        ],
        "metallicFactor": 0,
        "roughnessFactor": 0.72
      },
      "emissiveFactor": [
        0.9,
        0.2,
        0.02
      ],
      "alphaMode": "BLEND",
      "doubleSided": true
    },
    {
      "name": "kg_input_velocity_guides",
      "pbrMetallicRoughness": {
        "baseColorFactor": [
          0.18,
          0.78,
          0.96,
          0.44
        ],
        "metallicFactor": 0,
        "roughnessFactor": 0.72
      },
      "emissiveFactor": [
        0.04,
        0.18,
        0.22
      ],
      "alphaMode": "BLEND",
      "doubleSided": true
    },
    {
      "name": "kg_vehicle_swap_active_button",
      "pbrMetallicRoughness": {
        "baseColorFactor": [
          0.18,
          0.84,
          0.48,
          1
        ],
        "metallicFactor": 0,
        "roughnessFactor": 0.72
      },
      "emissiveFactor": [
        0.02,
        0.25,
        0.08
      ],
      "alphaMode": "OPAQUE",
      "doubleSided": false
    },
    {
      "name": "kg_vehicle_swap_idle_button",
      "pbrMetallicRoughness": {
        "baseColorFactor": [
          0.35,
          0.39,
          0.47,
          1
        ],
        "metallicFactor": 0,
        "roughnessFactor": 0.72
      },
      "emissiveFactor": [
        0,
        0,
        0
      ],
      "alphaMode": "OPAQUE",
      "doubleSided": false
    },
    {
      "name": "kg_smooth_camera_follow_marker",
      "pbrMetallicRoughness": {
        "baseColorFactor": [
          0.66,
          0.55,
          0.95,
          0.78
        ],
        "metallicFactor": 0,
        "roughnessFactor": 0.72
      },
      "emissiveFactor": [
        0.18,
        0.12,
        0.3
      ],
      "alphaMode": "BLEND",
      "doubleSided": true
    }
  ],
  "accessors": [
    {
      "bufferView": 0,
      "componentType": 5126,
      "count": 8,
      "type": "VEC3",
      "min": [
        -10,
        -0.09,
        -10
      ],
      "max": [
        10,
        0.09,
        10
      ]
    },
    {
      "bufferView": 1,
      "componentType": 5123,
      "count": 36,
      "type": "SCALAR"
    },
    {
      "bufferView": 2,
      "componentType": 5126,
      "count": 8,
      "type": "VEC3",
      "min": [
        -2.1,
        -0.175,
        -2.1
      ],
      "max": [
        2.1,
        0.175,
        2.1
      ]
    },
    {
      "bufferView": 3,
      "componentType": 5123,
      "count": 36,
      "type": "SCALAR"
    },
    {
      "bufferView": 4,
      "componentType": 5126,
      "count": 8,
      "type": "VEC3",
      "min": [
        -2.5,
        -0.12,
        -1.1
      ],
      "max": [
        2.5,
        0.12,
        1.1
      ]
    },
    {
      "bufferView": 5,
      "componentType": 5123,
      "count": 36,
      "type": "SCALAR"
    },
    {
      "bufferView": 6,
      "componentType": 5126,
      "count": 8,
      "type": "VEC3",
      "min": [
        -0.55,
        -0.55,
        -0.55
      ],
      "max": [
        0.55,
        0.55,
        0.55
      ]
    },
    {
      "bufferView": 7,
      "componentType": 5123,
      "count": 36,
      "type": "SCALAR"
    },
    {
      "bufferView": 8,
      "componentType": 5126,
      "count": 325,
      "type": "VEC3",
      "min": [
        -0.55,
        -0.55,
        -0.55
      ],
      "max": [
        0.55,
        0.55,
        0.55
      ]
    },
    {
      "bufferView": 9,
      "componentType": 5123,
      "count": 1728,
      "type": "SCALAR"
    },
    {
      "bufferView": 10,
      "componentType": 5126,
      "count": 153,
      "type": "VEC3",
      "min": [
        -0.575,
        -0.575,
        -0.575
      ],
      "max": [
        0.575,
        0.575,
        0.575
      ]
    },
    {
      "bufferView": 11,
      "componentType": 5123,
      "count": 768,
      "type": "SCALAR"
    },
    {
      "bufferView": 12,
      "componentType": 5126,
      "count": 66,
      "type": "VEC3",
      "min": [
        -0.34,
        -0.775,
        -0.34
      ],
      "max": [
        0.34,
        0.775,
        0.34
      ]
    },
    {
      "bufferView": 13,
      "componentType": 5123,
      "count": 288,
      "type": "SCALAR"
    },
    {
      "bufferView": 14,
      "componentType": 5126,
      "count": 8,
      "type": "VEC3",
      "min": [
        -0.06,
        -0.26,
        -0.25
      ],
      "max": [
        0.06,
        0.26,
        0.25
      ]
    },
    {
      "bufferView": 15,
      "componentType": 5123,
      "count": 36,
      "type": "SCALAR"
    },
    {
      "bufferView": 16,
      "componentType": 5126,
      "count": 50,
      "type": "VEC3",
      "min": [
        -0.24,
        -0.43,
        -0.24
      ],
      "max": [
        0.24,
        0.43,
        0.24
      ]
    },
    {
      "bufferView": 17,
      "componentType": 5123,
      "count": 216,
      "type": "SCALAR"
    },
    {
      "bufferView": 18,
      "componentType": 5126,
      "count": 8,
      "type": "VEC3",
      "min": [
        -0.04,
        -0.02,
        -1.2
      ],
      "max": [
        0.04,
        0.02,
        1.2
      ]
    },
    {
      "bufferView": 19,
      "componentType": 5123,
      "count": 36,
      "type": "SCALAR"
    },
    {
      "bufferView": 20,
      "componentType": 5126,
      "count": 192,
      "type": "VEC3",
      "min": [
        -6,
        0,
        -6
      ],
      "max": [
        6,
        0,
        6
      ]
    },
    {
      "bufferView": 21,
      "componentType": 5123,
      "count": 576,
      "type": "SCALAR"
    },
    {
      "bufferView": 22,
      "componentType": 5126,
      "count": 8,
      "type": "VEC3",
      "min": [
        -0.6,
        -0.06,
        -0.26
      ],
      "max": [
        0.6,
        0.06,
        0.26
      ]
    },
    {
      "bufferView": 23,
      "componentType": 5123,
      "count": 36,
      "type": "SCALAR"
    },
    {
      "bufferView": 24,
      "componentType": 5126,
      "count": 96,
      "type": "VEC3",
      "min": [
        -0.56,
        0,
        -0.56
      ],
      "max": [
        0.56,
        0,
        0.56
      ]
    },
    {
      "bufferView": 25,
      "componentType": 5123,
      "count": 288,
      "type": "SCALAR"
    },
    {
      "bufferView": 26,
      "componentType": 5126,
      "count": 4,
      "type": "SCALAR",
      "min": [
        0
      ],
      "max": [
        4.8
      ]
    },
    {
      "bufferView": 27,
      "componentType": 5126,
      "count": 4,
      "type": "VEC3"
    },
    {
      "bufferView": 28,
      "componentType": 5126,
      "count": 4,
      "type": "SCALAR",
      "min": [
        0
      ],
      "max": [
        4.8
      ]
    },
    {
      "bufferView": 29,
      "componentType": 5126,
      "count": 4,
      "type": "VEC4"
    },
    {
      "bufferView": 30,
      "componentType": 5126,
      "count": 4,
      "type": "SCALAR",
      "min": [
        0
      ],
      "max": [
        4.8
      ]
    },
    {
      "bufferView": 31,
      "componentType": 5126,
      "count": 4,
      "type": "VEC3"
    },
    {
      "bufferView": 32,
      "componentType": 5126,
      "count": 4,
      "type": "SCALAR",
      "min": [
        0
      ],
      "max": [
        4.8
      ]
    },
    {
      "bufferView": 33,
      "componentType": 5126,
      "count": 4,
      "type": "VEC3"
    },
    {
      "bufferView": 34,
      "componentType": 5126,
      "count": 4,
      "type": "SCALAR",
      "min": [
        0
      ],
      "max": [
        4.8
      ]
    },
    {
      "bufferView": 35,
      "componentType": 5126,
      "count": 4,
      "type": "VEC4"
    },
    {
      "bufferView": 36,
      "componentType": 5126,
      "count": 5,
      "type": "SCALAR",
      "min": [
        0
      ],
      "max": [
        4.8
      ]
    },
    {
      "bufferView": 37,
      "componentType": 5126,
      "count": 5,
      "type": "VEC3"
    },
    {
      "bufferView": 38,
      "componentType": 5126,
      "count": 4,
      "type": "SCALAR",
      "min": [
        0
      ],
      "max": [
        4.8
      ]
    },
    {
      "bufferView": 39,
      "componentType": 5126,
      "count": 4,
      "type": "VEC3"
    },
    {
      "bufferView": 40,
      "componentType": 5126,
      "count": 4,
      "type": "SCALAR",
      "min": [
        0
      ],
      "max": [
        4.8
      ]
    },
    {
      "bufferView": 41,
      "componentType": 5126,
      "count": 4,
      "type": "VEC3"
    }
  ],
  "bufferViews": [
    {
      "buffer": 0,
      "byteOffset": 0,
      "byteLength": 96,
      "target": 34962
    },
    {
      "buffer": 0,
      "byteOffset": 96,
      "byteLength": 72,
      "target": 34963
    },
    {
      "buffer": 0,
      "byteOffset": 168,
      "byteLength": 96,
      "target": 34962
    },
    {
      "buffer": 0,
      "byteOffset": 264,
      "byteLength": 72,
      "target": 34963
    },
    {
      "buffer": 0,
      "byteOffset": 336,
      "byteLength": 96,
      "target": 34962
    },
    {
      "buffer": 0,
      "byteOffset": 432,
      "byteLength": 72,
      "target": 34963
    },
    {
      "buffer": 0,
      "byteOffset": 504,
      "byteLength": 96,
      "target": 34962
    },
    {
      "buffer": 0,
      "byteOffset": 600,
      "byteLength": 72,
      "target": 34963
    },
    {
      "buffer": 0,
      "byteOffset": 672,
      "byteLength": 3900,
      "target": 34962
    },
    {
      "buffer": 0,
      "byteOffset": 4572,
      "byteLength": 3456,
      "target": 34963
    },
    {
      "buffer": 0,
      "byteOffset": 8028,
      "byteLength": 1836,
      "target": 34962
    },
    {
      "buffer": 0,
      "byteOffset": 9864,
      "byteLength": 1536,
      "target": 34963
    },
    {
      "buffer": 0,
      "byteOffset": 11400,
      "byteLength": 792,
      "target": 34962
    },
    {
      "buffer": 0,
      "byteOffset": 12192,
      "byteLength": 576,
      "target": 34963
    },
    {
      "buffer": 0,
      "byteOffset": 12768,
      "byteLength": 96,
      "target": 34962
    },
    {
      "buffer": 0,
      "byteOffset": 12864,
      "byteLength": 72,
      "target": 34963
    },
    {
      "buffer": 0,
      "byteOffset": 12936,
      "byteLength": 600,
      "target": 34962
    },
    {
      "buffer": 0,
      "byteOffset": 13536,
      "byteLength": 432,
      "target": 34963
    },
    {
      "buffer": 0,
      "byteOffset": 13968,
      "byteLength": 96,
      "target": 34962
    },
    {
      "buffer": 0,
      "byteOffset": 14064,
      "byteLength": 72,
      "target": 34963
    },
    {
      "buffer": 0,
      "byteOffset": 14136,
      "byteLength": 2304,
      "target": 34962
    },
    {
      "buffer": 0,
      "byteOffset": 16440,
      "byteLength": 1152,
      "target": 34963
    },
    {
      "buffer": 0,
      "byteOffset": 17592,
      "byteLength": 96,
      "target": 34962
    },
    {
      "buffer": 0,
      "byteOffset": 17688,
      "byteLength": 72,
      "target": 34963
    },
    {
      "buffer": 0,
      "byteOffset": 17760,
      "byteLength": 1152,
      "target": 34962
    },
    {
      "buffer": 0,
      "byteOffset": 18912,
      "byteLength": 576,
      "target": 34963
    },
    {
      "buffer": 0,
      "byteOffset": 19488,
      "byteLength": 16
    },
    {
      "buffer": 0,
      "byteOffset": 19504,
      "byteLength": 48
    },
    {
      "buffer": 0,
      "byteOffset": 19552,
      "byteLength": 16
    },
    {
      "buffer": 0,
      "byteOffset": 19568,
      "byteLength": 64
    },
    {
      "buffer": 0,
      "byteOffset": 19632,
      "byteLength": 16
    },
    {
      "buffer": 0,
      "byteOffset": 19648,
      "byteLength": 48
    },
    {
      "buffer": 0,
      "byteOffset": 19696,
      "byteLength": 16
    },
    {
      "buffer": 0,
      "byteOffset": 19712,
      "byteLength": 48
    },
    {
      "buffer": 0,
      "byteOffset": 19760,
      "byteLength": 16
    },
    {
      "buffer": 0,
      "byteOffset": 19776,
      "byteLength": 64
    },
    {
      "buffer": 0,
      "byteOffset": 19840,
      "byteLength": 20
    },
    {
      "buffer": 0,
      "byteOffset": 19860,
      "byteLength": 60
    },
    {
      "buffer": 0,
      "byteOffset": 19920,
      "byteLength": 16
    },
    {
      "buffer": 0,
      "byteOffset": 19936,
      "byteLength": 48
    },
    {
      "buffer": 0,
      "byteOffset": 19984,
      "byteLength": 16
    },
    {
      "buffer": 0,
      "byteOffset": 20000,
      "byteLength": 48
    }
  ],
  "buffers": [
    {
      "byteLength": 20048,
      "uri": "data:application/octet-stream;base64,"
    }
  ],
  "animations": [
    {
      "name": "kg_ball_roll_jump_loop",
      "samplers": [
        {
          "input": 26,
          "output": 27,
          "interpolation": "LINEAR"
        },
        {
          "input": 28,
          "output": 29,
          "interpolation": "LINEAR"
        },
        {
          "input": 30,
          "output": 31,
          "interpolation": "LINEAR"
        }
      ],
      "channels": [
        {
          "sampler": 0,
          "target": {
            "node": 11,
            "path": "translation"
          }
        },
        {
          "sampler": 1,
          "target": {
            "node": 11,
            "path": "rotation"
          }
        },
        {
          "sampler": 2,
          "target": {
            "node": 12,
            "path": "scale"
          }
        }
      ]
    },
    {
      "name": "kg_rocket_thrust_stabilize_loop",
      "samplers": [
        {
          "input": 32,
          "output": 33,
          "interpolation": "LINEAR"
        },
        {
          "input": 34,
          "output": 35,
          "interpolation": "LINEAR"
        },
        {
          "input": 36,
          "output": 37,
          "interpolation": "LINEAR"
        }
      ],
      "channels": [
        {
          "sampler": 0,
          "target": {
            "node": 13,
            "path": "translation"
          }
        },
        {
          "sampler": 1,
          "target": {
            "node": 13,
            "path": "rotation"
          }
        },
        {
          "sampler": 2,
          "target": {
            "node": 16,
            "path": "scale"
          }
        }
      ]
    },
    {
      "name": "kg_shared_camera_follow_and_velocity_loop",
      "samplers": [
        {
          "input": 38,
          "output": 39,
          "interpolation": "LINEAR"
        },
        {
          "input": 40,
          "output": 41,
          "interpolation": "LINEAR"
        }
      ],
      "channels": [
        {
          "sampler": 0,
          "target": {
            "node": 17,
            "path": "translation"
          }
        },
        {
          "sampler": 1,
          "target": {
            "node": 21,
            "path": "translation"
          }
        }
      ]
    }
  ],
  "cameras": [
    {
      "name": "kg_xr_playground_inspection_camera",
      "type": "perspective",
      "perspective": {
        "yfov": 0.68,
        "znear": 0.1,
        "zfar": 100
      }
    }
  ],
  "extensionsUsed": [
    "KHR_lights_punctual"
  ],
  "extensions": {
    "KHR_lights_punctual": {
      "lights": [
        {
          "name": "kg_playground_sun_key_light",
          "type": "directional",
          "color": [
            1,
            0.92,
            0.82
          ],
          "intensity": 2.4
        },
        {
          "name": "kg_playground_fill_light",
          "type": "point",
          "color": [
            0.35,
            0.72,
            1
          ],
          "intensity": 58,
          "range": 14
        }
      ]
    }
  }
}
