{"asset":{"version":"2.0","generator":"agenticgraph-xr-asset-conversion"},"scene":0,"scenes":[{"nodes":[0]}],"nodes":[{"mesh":0,"name":"frame-c0a158fe-t0.png","extras":{"sourceFormat":"png","sourceName":"frame-c0a158fe-t0.png","sourceHash":"683876724","sourceWidth":640,"sourceHeight":360}}],"meshes":[{"primitives":[{"attributes":{"POSITION":0,"NORMAL":1},"indices":2,"material":0}]}],"materials":[{"name":"XR PNG source plane","pbrMetallicRoughness":{"baseColorFactor":[0.9,0.92,0.95,1],"metallicFactor":0,"roughnessFactor":0.74},"doubleSided":true}],"buffers":[{"byteLength":108,"uri":"data:application/octet-stream;base64,"}],"bufferViews":[{"buffer":0,"byteOffset":0,"byteLength":48,"target":34962},{"buffer":0,"byteOffset":48,"byteLength":48,"target":34962},{"buffer":0,"byteOffset":96,"byteLength":12,"target":34963}],"accessors":[{"bufferView":0,"componentType":5126,"count":4,"type":"VEC3","min":[-1,-0.5625,0],"max":[1,0.5625,0]},{"bufferView":1,"componentType":5126,"count":4,"type":"VEC3","min":[0,0,1],"max":[0,0,1]},{"bufferView":2,"componentType":5123,"count":6,"type":"SCALAR","min":[0],"max":[3]}]}